<?xml version="1.0" standalone="no"?>
<!DOCTYPE svg PUBLIC "-//W3C//DTD SVG 1.1//EN" "http://www.w3.org/Graphics/SVG/1.1/DTD/svg11.dtd" >
<!--
2013-9-30: Created.
-->
<svg>
<metadata>
Created by iconfont
</metadata>
<defs>

<font id="iconfont" horiz-adv-x="1024" >
  <font-face
    font-family="iconfont"
    font-weight="500"
    font-stretch="normal"
    units-per-em="1024"
    ascent="896"
    descent="-128"
  />
    <missing-glyph />
    
    <glyph glyph-name="x" unicode="x" horiz-adv-x="1001"
d="M281 543q-27 -1 -53 -1h-83q-18 0 -36.5 -6t-32.5 -18.5t-23 -32t-9 -45.5v-76h912v41q0 16 -0.5 30t-0.5 18q0 13 -5 29t-17 29.5t-31.5 22.5t-49.5 9h-133v-97h-438v97zM955 310v-52q0 -23 0.5 -52t0.5 -58t-10.5 -47.5t-26 -30t-33 -16t-31.5 -4.5q-14 -1 -29.5 -0.5
t-29.5 0.5h-32l-45 128h-439l-44 -128h-29h-34q-20 0 -45 1q-25 0 -41 9.5t-25.5 23t-13.5 29.5t-4 30v167h911zM163 247q-12 0 -21 -8.5t-9 -21.5t9 -21.5t21 -8.5q13 0 22 8.5t9 21.5t-9 21.5t-22 8.5zM316 123q-8 -26 -14 -48q-5 -19 -10.5 -37t-7.5 -25t-3 -15t1 -14.5
t9.5 -10.5t21.5 -4h37h67h81h80h64h36q23 0 34 12t2 38q-5 13 -9.5 30.5t-9.5 34.5q-5 19 -11 39h-368zM336 498v228q0 11 2.5 23t10 21.5t20.5 15.5t34 6h188q31 0 51.5 -14.5t20.5 -52.5v-227h-327z" />
    

    
    <glyph glyph-name="gou-o" unicode="&#58915;" d="M512-64C264.96-64 64 136.96000000000004 64 384S264.96 832 512 832s448-200.96 448-448S759.04-64 512-64zM512 767.712C300.416 767.712 128.288 595.5840000000001 128.288 384c0-211.552 172.128-383.712 383.712-383.712 211.552 0 383.712 172.16 383.712 383.712C895.712 595.5840000000001 723.552 767.712 512 767.712zM726.976 502.816c-12.544 12.448-32.832 12.32-45.248-0.256l-233.28-235.84-103.264 106.112c-12.352 12.704-32.608 12.928-45.248 0.64-12.672-12.32-12.96-32.608-0.64-45.248l126.016-129.504c0.064-0.096 0.192-0.096 0.256-0.192 0.064-0.064 0.096-0.192 0.16-0.256 2.016-1.984 4.512-3.2 6.88-4.544 1.248-0.672 2.24-1.792 3.52-2.304 3.872-1.6 8-2.4 12.096-2.4 4.064 0 8.128 0.8 11.968 2.336 1.248 0.512 2.208 1.536 3.392 2.176 2.4 1.344 4.896 2.528 6.944 4.544 0.064 0.064 0.096 0.192 0.192 0.256 0.064 0.096 0.16 0.128 0.256 0.192l256.224 259.008C739.648 470.144 739.52 490.4 726.976 502.816z"  horiz-adv-x="1024" />

    
    <glyph glyph-name="right" unicode="&#58914;" d="M877.216 404.192M297.952-53.98400000000004c-12.512 12.512-13.248 31.872-2.048 43.776l376.48 376.512c16.16 15.328 16.096 19.328 0 35.424L295.904 778.176C284.672 790.08 285.44 809.44 297.952 821.952c12.736 12.736 32.608 13.44 44.448 1.632l418.176-418.176c5.152-5.152 7.456-11.84 7.872-18.784l0-5.248c-0.448-6.944-2.752-13.632-7.872-18.784L342.4-55.615999999999985C330.56-67.39200000000005 310.656-66.68799999999999 297.952-53.98400000000004z"  horiz-adv-x="1024" />

    
    <glyph glyph-name="people" unicode="&#59066;" d="M636.5 367.4c67.4 41.8 112.7 115.9 112.7 201.1 0 131-106.2 237.2-237.2 237.2-131 0-237.2-106.2-237.2-237.2 0-85.2 45.3-159.2 112.7-201.1C220.6 322.3 90.2 189.3 64.6 23.1c-2.3-15.2 2.1-30.8 12.1-42.5 10-11.7 24.6-18.6 40-18.6L512-38l395.3 0c15.4 0 30 6.9 40 18.6 10 11.7 14.4 27.2 12.1 42.4C933.8 189.2 803.4 322.3 636.5 367.4zM327.5 568.5c0 101.7 82.8 184.5 184.5 184.5s184.5-82.8 184.5-184.5S613.7 384 512 384 327.5 466.8 327.5 568.5zM512 15c-195.6 0-395.3 0-395.3 0C144.2 193 313.2 331.2 512 331.2S879.8 193 907.3 15C907.3 15 707.6 15 512 15z"  horiz-adv-x="1024" />

    
    <glyph glyph-name="clock" unicode="&#59409;" d="M480 832C215.04 832 0 616.96 0 352 0 87.03999999999996 215.04-128 480-128S960 87.03999999999996 960 352C960 616.96 744.96 832 480 832zM736 320l-256 0C462.08 320 448 334.08000000000004 448 352l0 256C448 625.9200000000001 462.08 640 480 640S512 625.9200000000001 512 608L512 384l224 0C753.92 384 768 369.91999999999996 768 352 768 334.08000000000004 753.92 320 736 320z"  horiz-adv-x="1024" />

    
    <glyph glyph-name="mobile" unicode="&#58959;" d="M394.395 100.10900000000004c-26.407 0-47.89-21.482-47.89-47.891 0-26.407 21.484-47.891 47.89-47.891 26.408 0 47.893 21.483 47.893 47.891C442.287 78.62699999999995 420.803 100.10900000000004 394.395 100.10900000000004zM631.334 853.931L157.458 853.931c-39.865 0-72.298-32.433-72.298-72.298l0-795.266c0-39.866 32.433-72.298 72.298-72.298l473.875 0c39.865 0 72.297 32.432 72.297 72.298L703.63 781.633C703.631 821.498 671.199 853.931 631.334 853.931zM157.458 805.732l473.875 0c13.289 0 24.1-10.812 24.1-24.1l0-595.808L133.359 185.82399999999996 133.359 781.633C133.359 794.921 144.17 805.732 157.458 805.732zM631.334-37.730999999999995L157.458-37.730999999999995c-13.288 0-24.1 10.81-24.1 24.099L133.358 133.5l522.075 0 0-147.133C655.434-26.922000000000025 644.623-37.730999999999995 631.334-37.730999999999995z"  horiz-adv-x="1024" />

    
    <glyph glyph-name="wrong-o" unicode="&#58995;" d="M510.428202 834.390827c-247.237941 0-447.666786-200.423729-447.666786-447.663716s200.428845-447.666786 447.666786-447.666786c247.233847 0 447.663716 200.427822 447.663716 447.666786S757.667166 834.390827 510.428202 834.390827L510.428202 834.390827zM510.428202 3.0118459999999914c-211.921597 0-383.715265 171.793668-383.715265 383.715265 0 211.918527 171.793668 383.712195 383.715265 383.712195 211.918527 0 383.712195-171.793668 383.712195-383.712195C894.139374 174.80551400000002 722.345706 3.0118459999999914 510.428202 3.0118459999999914L510.428202 3.0118459999999914zM510.428202 3.0118459999999914M711.015659 584.590528c-11.971659 11.975752-29.9358 11.975752-41.911552 0L510.428202 425.913599 351.751273 584.590528c-11.975752 11.975752-29.939893 11.975752-41.915645 0-11.975752-11.975752-11.975752-29.939893 0-41.915645l158.676929-158.676929L309.835627 225.322048c-11.975752-11.975752-11.975752-29.939893 0-41.911552 5.988388-5.988388 11.975752-8.981559 20.958334-8.981559 8.981559 0 14.969946 2.993171 20.957311 8.981559l158.676929 158.675906 158.675906-158.675906c5.988388-5.988388 14.969946-8.981559 20.958334-8.981559 5.987365 0 14.965853 2.993171 20.953218 8.981559 11.975752 11.971659 11.975752 29.9358 0 41.911552L552.339754 383.99795300000005l158.675906 158.676929C722.991412 554.650635 722.991412 572.613752 711.015659 584.590528L711.015659 584.590528zM711.015659 584.590528"  horiz-adv-x="1024" />

    
    <glyph glyph-name="email" unicode="&#58883;" d="M749.13204679 729.8957265500001L274.62843769 729.8957265500001c-87.34642342 0-158.13704121-72.39133834-158.13704121-161.63175133l0-319.52927702c0-89.240413 70.79061702-160.95114881 158.13704121-160.95114882l474.50281809 0c87.39385267 0 158.18130795 71.71152606 158.18130795 160.95114883L907.31256373 568.26397522C907.31335475 657.50359798 836.52510846 729.8957265500001 749.13204679 729.8957265500001zM664.78312225 406.84960565l192.95450854 115.93570255 0-229.10709672L664.78312225 406.84960565zM274.62843769 680.6101091200001l474.50281809 0c56.38175371 0 103.02954027-45.28104753 108.13445849-102.01298401L511.90356176 371.04403773 166.31849346 578.7315073899999C171.50878266 635.40099535 218.33600849 680.6101091200001 274.62843769 680.6101091200001zM165.83313894 522.9260131999999l193.19007208-116.0771978L165.83313894 293.54066746 165.83313894 522.9260131999999zM749.13204679 137.25730107000004L274.62843769 137.25730107000004c-56.23156271 0-103.01926403 44.33879573-108.29413551 100.83200695l239.19124664 140.28563851c0.14623901 0.08853349 0.28615377 0.18418149 0.42923026 0.27508726l93.71136618-56.30586797c3.73896864-2.23231484 7.96329257-3.39669139 12.23662548-3.39669138 4.27175242 0 8.49528533 1.16437655 12.23504423 3.39669138l93.71294666 56.30665822c0.1438675-0.09169601 0.28378226-0.18734402 0.43081151-0.27587752l238.96754062-140.15441873C852.05882457 181.66486883000005 805.45135275 137.25730107000004 749.13204679 137.25730107000004z"  horiz-adv-x="1040" />

    
    <glyph glyph-name="home" unicode="&#58881;" d="M53.005653 320.470247C53.005653 320.470247 0 329.262429 0 398.271194 0 430.692418 53.005653 478.008698 53.005653 478.008698L420.974618 845.598452C420.974618 845.598452 459.005742 896 525.128231 896 591.250721 896 631.242594 845.598452 631.242594 845.598452L998.733456 478.008698C998.733456 478.008698 1049.59551 432.441008 1050.231992 398.271194 1051.548147 327.61263899999994 999.211559 320.470247 999.211559 320.470247L920.361065 320.470247C920.361065 320.470247 920.361013 26.717461999999955 920.361065-49.58562500000005 920.361144-125.88871200000006 870.292112-125.88872700000002 845.257649-125.88872700000002L682.730785-125.88872700000002C656.806912-125.88872700000002 604.959114-113.82751399999995 604.959114-50.64045199999998 604.959088-11.12312099999997 604.959114 71.27148399999999 604.959114 112.11260600000003 604.959088 152.95372499999996 599.837486 162.93179099999998 555.376824 162.931786 510.916162 162.931778 533.583084 162.931778 500.872455 162.931786 475.685888 162.93179099999998 447.258125 162.93179099999998 447.258125 111.11575000000005 447.258125 59.299711 447.258099-2.9323950000000423 447.258125-49.20020899999997 447.258125-125.88871200000006 398.204534-125.88872700000002 373.677739-125.88872700000002L212.887053-125.88872700000002C185.876743-125.88872700000002 131.856148-125.88871200000006 131.856148-51.30985899999996 131.856148 23.268993000000023 131.856148 320.470247 131.856148 320.470247L53.005653 320.470247Z"  horiz-adv-x="1051" />

    
    <glyph glyph-name="heart" unicode="&#59111;" d="M292.864 774.016c-148.608 0-269.12-118.208-269.12-264 0-39.168 9.28-76.032 24.832-109.376C49.024 399.552 48.96 398.72 49.408 397.696 50.048 396.16 51.2 394.432 51.904 392.896 52.672 391.232 53.504 389.632 54.4 387.968c79.744-166.656 457.28-471.68 457.6-472L512 661.696C463.552 729.472 383.808 774.016 292.864 774.016zM731.136 774.016c-90.944 0-170.688-44.48-219.136-112.32l0-745.664c0.384 0.32 377.856 305.344 457.6 472 0.896 1.6 1.664 3.264 2.496 4.928 0.704 1.536 1.792 3.264 2.496 4.8 0.384 1.024 0.384 1.856 0.768 2.88 15.616 33.408 24.896 70.272 24.896 109.376C1000.256 655.808 879.744 774.016 731.136 774.016z"  horiz-adv-x="1024" />

    
    <glyph glyph-name="wechat" unicode="&#58935;" d="M873.202 119.99599999999998c39.796 36.367 63.946 84.144 63.946 136.467 0 91.062-73.137 168.335-174.607 195.706-6.052 145.915-154.579 262.711-336.947 262.711-186.21 0-337.163-121.764-337.163-271.968 0-68.974 31.833-131.953 84.293-179.895 16.417-15.003-2.804-56.059-26.417-89.977 39.906 11.022 82.471 18.196 119.732 18.196 17.445 0 33.731-1.575 48.03-5.062 34.908-9.865 72.437-15.231 111.523-15.231 7.591 0 15.12 0.225 22.589 0.624 40.125-71.599 129.444-121.424 233.191-121.424 29.65 0 58.123 4.069 84.603 11.556 10.848 2.646 23.199 3.84 36.435 3.84 28.265 0 60.556-5.443 90.83-13.804-17.91 25.73-32.492 56.871-20.037 68.255zM425.595 220.62300000000005c-33.675 0-66.651 4.494-98.011 13.359l-0.866 0.244-0.874 0.214c-17.618 4.299-37.738 6.478-59.801 6.478-12.681 0-25.347-0.699-37.732-1.888 2.629 29.109-8.524 48.277-22.071 60.659-21.881 19.995-38.877 42.477-50.515 66.818-11.687 24.446-17.616 50.153-17.616 76.405 0 57.328 28.506 111.892 80.265 153.645 26.429 21.317 57.391 38.117 92.023 49.934 36.391 12.417 75.15 18.711 115.199 18.711s78.807-6.295 115.199-18.711c34.633-11.815 65.594-28.617 92.023-49.934 46.193-37.262 73.845-84.732 79.261-135.26 0.001 0 0.001 0 0.002 0-10.069 0.971-20.314 1.486-30.708 1.486-141.263 0-255.777-92.371-255.777-206.321 0-12.21 1.326-24.174 3.847-35.803-0.001 0.002-0.001 0.002-0.001 0.004-1.285-0.014-2.565-0.041-3.847-0.041zM839.686 156.66200000000003c-8.029-7.34-18.617-20.825-20.541-41.932-5.547 0.315-11.14 0.489-16.737 0.489-17.695 0-33.914-1.769-48.207-5.257l-0.874-0.214-0.867-0.242c-22.731-6.427-46.646-9.683-71.089-9.683-29.06 0-57.162 4.561-83.52 13.551-24.941 8.51-47.2 20.576-66.153 35.865-36.388 29.353-56.429 67.431-56.429 107.222 0 39.795 20.041 77.874 56.429 107.226 18.955 15.29 41.211 27.355 66.153 35.865 26.358 8.993 54.46 13.552 83.52 13.552s57.161-4.561 83.519-13.552c24.942-8.512 47.201-20.576 66.154-35.865 36.388-29.351 56.428-67.43 56.428-107.226 0-18.112-4.101-35.873-12.19-52.789-8.162-17.069-20.138-32.887-35.596-47.011zM277.639 496.08c0.27 28.671 18.21 51.777 40.304 51.777 22.26 0 40.306-23.46 40.306-52.398 0-28.94-18.045-52.398-40.306-52.398-22.094 0-40.033 23.107-40.302 51.744zM487.295 496.08c0.27 28.671 18.21 51.777 40.302 51.777 22.259 0 40.305-23.46 40.305-52.398 0-28.94-18.045-52.398-40.305-52.398-22.092 0-40.032 23.107-40.301 51.744zM580.218 294.80499999999995c0.27 22.034 14.074 39.763 31.061 39.763 17.156 0 31.065-18.08 31.065-40.384 0-22.304-13.908-40.384-31.065-40.384-16.988 0-30.791 17.729-31.061 39.73zM729.874 294.80499999999995c0.27 22.034 14.074 39.763 31.062 39.763 17.156 0 31.067-18.08 31.067-40.384 0-22.304-13.909-40.384-31.067-40.384-16.989 0-30.794 17.729-31.062 39.73z"  horiz-adv-x="1024" />

    
    <glyph glyph-name="clock-o" unicode="&#58938;" d="M511.913993 832.010751c-247.012263 0-447.924744-200.912481-447.924744-447.924744s200.912481-447.924744 447.924744-447.924744 447.924744 200.912481 447.924744 447.924744S758.926256 832.010751 511.913993 832.010751zM511.913993 0.32252600000003895c-211.577356 0-383.763481 172.186125-383.763481 383.763481 0 211.577356 172.014111 383.763481 383.763481 383.763481s383.763481-172.014111 383.763481-383.763481S723.491349 0.32252600000003895 511.913993 0.32252600000003895zM672.05913 384.086007l-159.973123 0L512.086007 607.8763650000001c0 17.717453-14.277171 32.166639-31.994625 32.166639-17.717453 0-31.994625-14.449185-31.994625-32.166639l0-255.956996c0-17.717453 14.277171-31.994625 31.994625-31.994625l191.967747 0c17.717453 0 32.166639 14.277171 32.166639 31.994625C704.053754 369.80883600000004 689.604569 384.086007 672.05913 384.086007z"  horiz-adv-x="1024" />

    
    <glyph glyph-name="jiantou" unicode="&#58887;" d="M946.884919 380.691697 80.423388-127.999992 329.859284 387.255799 77.115081 896Z"  horiz-adv-x="1024" />

    
    <glyph glyph-name="people-2" unicode="&#58916;" d="M512-359.489906M888.810714 184.95142899999996c-20.570058 48.713172-50.145912 92.514092-87.704177 130.072357s-81.359184 67.13412-130.072357 87.704177c-14.020388 5.935639-28.347791 11.052568-42.879872 15.35079 59.151709 38.274635 98.44973 104.897062 98.44973 180.525285 0 118.508095-96.402958 214.911053-214.911053 214.911053s-214.911053-96.402958-214.911053-214.911053c0-75.628223 39.298021-142.25065 98.44973-180.525285-14.532081-4.298221-28.859484-9.415151-42.879872-15.35079-48.713172-20.570058-92.514092-50.145912-130.072357-87.704177s-67.13412-81.359184-87.704177-130.072357c-21.388767-50.452928-32.134319-104.078353-32.134319-159.341195 0-14.122726 11.461923-25.584649 25.584649-25.584649s25.584649 11.461923 25.584649 25.584649c0 95.686588 37.251249 185.642215 104.897062 253.288027 67.645813 67.645813 157.601439 104.897062 253.288027 104.897062 95.686588 0 185.642215-37.251249 253.288027-104.897062s104.897062-157.601439 104.897062-253.288027c0-14.122726 11.461923-25.584649 25.584649-25.584649s25.584649 11.461923 25.584649 25.584649C920.945033 80.87307599999997 910.097142 134.49850100000003 888.810714 184.95142899999996zM347.848891 598.706376c0 90.262642 73.479113 163.741755 163.741755 163.741755s163.741755-73.479113 163.741755-163.741755-73.479113-163.741755-163.741755-163.741755S347.848891 508.443734 347.848891 598.706376z"  horiz-adv-x="1024" />

    
    <glyph glyph-name="pencil" unicode="&#58919;" d="M373.37451172 319.76953125l73.60400391-73.36669922 200.04785156 197.91210938L573.42236328 517.68164063 373.37451172 319.76953125zM512 779.5078125C293.56103516 779.5078125 116.4921875 602.4389648399999 116.4921875 384c0-218.43896484 177.06884766-395.5078125 395.5078125-395.5078125 218.43896484 0 395.5078125 177.06884766 395.5078125 395.5078125C907.5078125 602.4389648399999 730.43896484 779.5078125 512 779.5078125zM512 21.873046870000053c-200.00830078 0-362.12695313 162.11865234-362.12695313 362.12695313 0 200.00830078 162.11865234 362.12695313 362.12695313 362.12695313 200.00830078 0 362.12695313-162.11865234 362.12695313-362.12695313C874.12695313 183.99169922 712.00830078 21.873046870000053 512 21.873046870000053zM668.10693359 569.6118164100001C655.92529297 581.75390625 636.18945313 581.75390625 623.96826172 569.6118164100001L587.14648438 532.9086914100001l73.6040039-73.36669922 36.78222656 36.66357422C709.75390625 508.38720703 709.75390625 528.12304688 697.57226563 540.26513672L668.10693359 569.6118164100001zM314.24609375 186.24609375l117.74267578 46.47216797-72.9711914 72.7734375L314.24609375 186.24609375z"  horiz-adv-x="1024" />

    
    <glyph glyph-name="down" unicode="&#58882;" d="M478.312 251.841c24.38-26.902 64.507-26.539 88.507 0.889l270.569 309.222c7.759 8.867 6.86 22.345-2.007 30.103-8.867 7.759-22.345 6.86-30.103-2.007l-270.569-309.222c-7.202-8.231-17.541-8.324-24.782-0.334l-280.786 309.833c-7.912 8.73-21.403 9.394-30.133 1.482-8.73-7.912-9.394-21.403-1.482-30.133l280.786-309.833z"  horiz-adv-x="1024" />

    
    <glyph glyph-name="star" unicode="&#59056;" d="M942.689255 484.770163c-4.743556 14.595558-17.39304 25.298967-32.596745 27.4883l-250.070555 36.367265-111.899275 226.596033c-6.81126 13.74415-20.79867 22.501485-36.124005 22.501485-15.325336 0-29.312745-8.757335-36.124005-22.501485l-111.899275-226.596033-250.070555-36.367265c-15.203706-2.189334-27.853189-12.771113-32.596745-27.4883-4.743556-14.595558-0.729778-30.650671 10.21689-41.35408l180.984915-176.362988L229.939522 17.95557699999995c-2.554223-15.082076 3.648889-30.407412 16.055113-39.408006 12.406224-9.000594 28.826226-10.21689 42.448747-3.040741l223.676921 117.615869 223.676921-117.615869c5.838223-3.040741 12.284594-4.621927 18.730966-4.621927 8.392446 0 16.663262 2.554223 23.717781 7.662668 12.406224 9.000594 18.609336 24.325929 16.055113 39.408006l-42.692006 249.097518 180.984915 176.362988C943.419033 454.119492 947.432811 470.174605 942.689255 484.770163L942.689255 484.770163z"  horiz-adv-x="1024" />

    
    <glyph glyph-name="search" unicode="&#59108;" d="M889.6 57.60000000000002l-192 192C742.4 300.79999999999995 768 371.20000000000005 768 448c0 179.2-140.8 320-320 320S128 627.2 128 448s140.8-320 320-320c76.8 0 147.2 25.6 198.4 70.4l192-192c12.8-12.8 32-12.8 44.8 0C896 19.200000000000045 896 44.799999999999955 889.6 57.60000000000002zM192 448c0 140.8 115.2 256 256 256s256-115.2 256-256c0-140.8-115.2-256-256-256S192 307.20000000000005 192 448z"  horiz-adv-x="1024" />

    
    <glyph glyph-name="zan" unicode="&#58993;" d="M886.59584 472.46208 648.01152 472.46208C740.45184 813.91488 584.30464 831.36 584.30464 831.36c-66.2016 0-52.4608-52.34048-57.4592-61.06112 0-166.98624-177.37216-297.8368-177.37216-297.8368l0-473.54752c0-46.72768 63.70048-63.55456 88.6848-63.55456l358.5024 0c33.728 0 61.20576 88.48256 61.20576 88.48256C946.56 325.41184 946.56 415.13472 946.56 415.13472 946.56 477.44256 886.59584 472.46208 886.59584 472.46208L886.59584 472.46208zM886.59584 472.46208M251.56736 472.3072 108.69888 472.3072c-29.51296 0-29.97888-28.97664-29.97888-28.97664l29.51296-477.59232c0-30.37824 30.4448-30.37824 30.4448-30.37824l123.66336 0c25.76256 0 25.5296 20.09472 25.5296 20.09472L287.87072 436.09088C287.87072 472.77312 251.56736 472.3072 251.56736 472.3072L251.56736 472.3072zM251.56736 472.3072"  horiz-adv-x="1024" />

    
    <glyph glyph-name="pen" unicode="&#58944;" d="M147.80047224 17.387590300000056l51.68423995 186.91187037c2.52214508 9.12949612 11.09318829 23.84048996 17.78855631 30.53282326l522.60903781 522.60903782c0.58273379 0.58273379 156.65220291-154.51854786 156.65220373-154.51854785 0.59790893-0.59790893-522.59386267-524.75483332-522.59386267-524.75483332-6.43738733-6.43738733-20.88129474-14.40141669-29.7588804-16.40759875l-196.38129473-44.37275153z m37.27978857 249.63770216c-12.25865588-12.26169058-24.85723919-33.88050769-29.47661884-50.59464973L93.78833179-7.1297214700000495c-4.58599384-16.58059799 10.17356094-32.0594653 26.95447375-28.2686597l233.47290976 52.75562036c17.26955942 3.90310264 39.39523379 16.10105631 51.91490506 28.6207284l522.60903781 522.60903781c18.3682554 18.3682554 18.35915048 48.15748691-0.01517514 66.52877701L774.22111033 789.6191543c-18.3682554 18.3682554-48.16355631 18.38343054-66.53181172 0.01214044L185.08026081 267.02832714zM643.10600229 654.71931172l154.81902008-154.81901926a22.76303933 22.76303933 0 0 1 32.18997299 32.18997298l-154.81901926 154.81901926a22.76303933 22.76303933 0 0 1-32.18997381-32.18997298zM193.91535492 229.80923996l183.6764838-183.67951849a22.76303933 22.76303933 0 0 1 32.19300851 32.19300768l-183.67951932 183.6764838a22.76303933 22.76303933 0 0 1-32.18997299-32.18997299z"  horiz-adv-x="1035" />

    
    <glyph glyph-name="gou" unicode="&#58913;" d="M852.5056 572.16L811.52 611.84l-407.89504-402.77504-192.85504 194.56-39.77216-45.06112 235.37664-233.84576 68.27008 68.5568-0.08192 0.0768 377.94304 378.80832z"  horiz-adv-x="1024" />

    
    <glyph glyph-name="books" unicode="&#59094;" d="M495.520677 764.37417H391.420761c-24.335245 0-43.262316-19.603477-43.262316-43.938721v-656.368039c0-24.335245 19.603477-43.937698 43.262316-43.937698h104.099916c23.658839 0 43.261293 19.603477 43.261293 43.937698V720.4354490000001c0.676405 24.334221-18.926048 43.938722-43.261293 43.938721z m-9.464559-672.591535c0-10.815323-8.78713-18.927071-18.926048-18.927071h-47.318702c-10.816347 0-18.927071 8.78713-18.927072 18.927071V692.044842c0 10.816347 8.788154 18.927071 18.927072 18.927071h47.318702c10.815323 0 18.926048-8.788154 18.926048-18.927071v-600.262207z m431.270351 10.138918L746.981802 736.657922c-2.704598 11.491729-10.139941 20.955264-20.278859 26.362414-10.139941 6.083555-21.63167 7.436366-33.123398 4.731768l-100.718913-27.03882c-23.659863-6.083555-37.178761-29.742395-30.4188-53.401234l169.668261-634.060986c5.40715-19.603477 22.983457-32.446993 41.909506-32.446993 3.37998 0 7.436366 0.676405 10.816346 1.351787l100.718913 27.03882c24.335245 5.409197 37.855166 29.068036 31.771611 52.726875z m-72.329329-9.463536c-13.518898-3.37998-29.742395-8.111748-45.965891-12.16711-10.139941-2.703575-20.955264 3.37998-23.658839 13.518898-9.464559 37.178761-31.095205 116.943432-77.061097 289.991674l-77.061097 289.991673c-2.704598 10.139941 3.378957 20.278859 13.518899 23.659863 13.518898 3.37998 29.742395 8.111748 45.965891 12.167111 10.139941 2.703575 20.955264-3.381004 23.659862-13.519922 9.463536-37.177737 31.094182-116.942409 77.061097-289.991674l77.736479-289.991673c2.028193-10.8143-4.056386-20.954241-14.195304-23.65884zM739.548506 394.533914zM257.57845 764.37417H152.803151c-24.335245 0-43.262316-19.603477-43.262316-43.938721v-656.368039c0-24.335245 19.603477-43.937698 43.262316-43.937698h104.098893c23.659863 0 43.262316 19.603477 43.262317 43.937698V720.4354490000001c0.676405 24.334221-18.927071 43.938722-42.585911 43.938721z m-9.463536-672.591535c0-10.815323-8.788154-18.927071-18.927071-18.927071h-47.317679c-10.815323 0-18.927071 8.78713-18.927071 18.927071V692.044842c0 10.816347 8.78713 18.927071 18.927071 18.927071h47.317679c10.816347 0 18.927071-8.788154 18.927071-18.927071v-600.262207z"  horiz-adv-x="1024" />

    
    <glyph glyph-name="star-0" unicode="&#58886;" d="M248.482281-42.00032399999998c-4.306072 0-8.592702 1.336438-12.211113 3.967358-6.395664 4.646833-9.600659 12.521175-8.264221 20.314675l48.430012 282.363949L71.288626 464.617086c-5.66093 5.519714-7.698333 13.772678-5.255701 21.291932 2.444679 7.519254 8.943696 13.000082 16.768919 14.137998l283.508006 41.195238L493.099535 798.146345c3.498684 7.089465 10.720156 11.577686 18.627243 11.577686 7.907087 0 15.127536-4.489244 18.627243-11.577686l126.788661-256.904091 283.510052-41.195238c7.823176-1.137916 14.322194-6.618744 16.766872-14.137998 2.442632-7.519254 0.405229-15.773242-5.255701-21.291932L747.012502 264.645658l48.430012-282.363949c1.336438-7.7935-1.868557-15.667841-8.264221-20.314675-6.399757-4.646833-14.878872-5.257747-21.874193-1.582031L511.726777 93.70133399999997 258.146385-39.61499700000002C255.107165-41.211355000000026 251.789607-42.00032399999998 248.482281-42.00032399999998zM130.422422 464.988546L313.25654 286.77158499999996c4.894474-4.7727 7.128351-11.647271 5.974062-18.385742l-43.163055-251.64532 225.994104 118.811989c6.048763 3.180436 13.282514 3.180436 19.331277 0l225.992057-118.811989-43.163055 251.64532c-1.154289 6.738471 1.079588 13.613042 5.974062 18.385742l182.833095 178.216961-252.665557 36.71418c-6.767124 0.983397-12.614296 5.233188-15.641235 11.362792L511.726777 742.02107 398.729214 513.065518c-3.025916-6.129604-8.874111-10.379395-15.639189-11.362792L130.422422 464.988546z"  horiz-adv-x="1024" />

    
    <glyph glyph-name="shield" unicode="&#59095;" d="M856.139 716.1030000000001a28.777 28.777 0 0 1-36.876 21.728c-67.014-21.163-139.715-8.946-216.082 36.31-59.11 35.031-98.103 77.59-98.782 78.335-6.595 7.301-16.084 10.432-25.155 9.233-9.01 1.136-18.413-1.99-24.972-9.227-0.387-0.428-39.451-43.178-98.786-78.341-76.366-45.255-149.067-57.472-216.082-36.31a28.78 28.78 0 0 1-36.875-21.728C101.434 710.7 76.07 582 107.136 427.231 125.52 335.63599999999997 159.96 253.98000000000002 209.5 184.52999999999997c62.043-86.98 147.732-154.566 254.687-200.879 3.727-1.613 12.821-3.817 14.074-3.817 5.276 0 12.494 2.204 16.219 3.817C601.436 29.964000000000055 687.126 97.54999999999995 749.167 184.52999999999997c49.54 69.451 83.98 151.107 102.364 242.701C882.597 582 857.234 710.7 856.14 716.1030000000001z m-59.491-278.156c-38.008-186.632-144.1-320.088-315.382-396.796-171.28 76.708-277.372 210.164-315.382 396.796-20.701 101.643-14.743 192.978-9.397 238.159 36.557-6.765 74.44-5.999 113.034 2.322 39.236 8.461 79.174 24.724 118.703 48.336 41.975 25.073 74.408 52.992 93.04 70.638 18.633-17.647 51.067-45.564 93.04-70.638 39.529-23.613 79.467-39.876 118.703-48.336 38.594-8.321 76.477-9.088 113.033-2.321 5.348-45.195 11.303-136.525-9.396-238.16zM452.227 292.01300000000003c-7.372 0-14.737 2.813-20.352 8.43l-99.724 99.724c-11.239 11.24-11.239 29.463 0 40.702s29.463 11.24 40.702 0l79.673-79.672L616.818 520.7c11.407 11.072 29.626 10.802 40.698-0.603s10.804-29.625-0.602-40.697L472.273 300.14300000000003a28.69 28.69 0 0 0-20.047-8.132z"  horiz-adv-x="1024" />

    
    <glyph glyph-name="phone" unicode="&#58941;" d="M775.267009-64.837448H248.732991c-51.759851 0-93.866854 42.107003-93.866854 93.857644V738.970594c0 51.759851 42.107003 93.866854 93.866854 93.866854h526.534018c51.759851 0 93.866854-42.107003 93.866854-93.866854v-709.951421c0-51.749618-42.107003-93.856621-93.866854-93.856621zM248.732991 793.80855c-30.234605 0-54.836933-24.603351-54.836933-54.836933v-709.951421c0-30.234605 24.603351-54.827723 54.836933-54.827722h526.534018c30.234605 0 54.836933 24.593118 54.836933 54.827722V738.970594c0 30.234605-24.603351 54.836933-54.836933 54.836932H248.732991zM616.433514 79.34025499999996H407.575696c-10.776438 0-19.514449 8.738012-19.51445 19.51445s8.738012 19.514449 19.51445 19.514449H616.433514c10.776438 0 19.514449-8.738012 19.514449-19.514449 0.001023-10.776438-8.736988-19.514449-19.514449-19.51445z"  horiz-adv-x="1024" />

    
    <glyph glyph-name="icon-test" unicode="&#59016;" d="M960-10.8h-896v75.6c0 129.7 105.5 235.2 235.2 235.2h425.6c129.7 0 235.2-105.5 235.2-235.2v-75.6zM108.9 34h806.3v30.8c0 105-85.4 190.4-190.4 190.4h-425.6c-105 0-190.4-85.4-190.4-190.4v-30.8zM512 308.4c-129.7 0-235.2 105.5-235.2 235.2s105.5 235.2 235.2 235.2 235.2-105.5 235.2-235.2-105.5-235.2-235.2-235.2zM512 734c-105 0-190.4-85.4-190.4-190.4s85.4-190.4 190.4-190.4 190.4 85.4 190.4 190.4-85.4 190.4-190.4 190.4z"  horiz-adv-x="1024" />

    
    <glyph glyph-name="video" unicode="&#59196;" d="M304 448a48 48 0 1 0 0.032 96.032 48 48 0 0 0 0-96m606.976 124.256a32.192 32.192 0 0 1-32.96-1.792l-91.52-62.048V608a64.064 64.064 0 0 1-64 64.032H192a64.064 64.064 0 0 1-64-64V160c0-35.328 28.704-64 64-64h530.56a64.064 64.064 0 0 1 63.936 64v42.592l0.384 25.312 91.04-62.336A32 32 0 0 1 928 192V544c0 11.84-6.56 22.72-16.96 28.288"  horiz-adv-x="1024" />

    
    <glyph glyph-name="eye" unicode="&#59042;" d="M982.143707 502.695333C867.62244 657.124518 699.511651 754.904495 511.819898 754.904495c-187.736778 0-355.148649-97.779977-470.324832-252.209162-50.834782-68.144006-50.834782-169.290661 0-237.390666 115.176183-154.429185 283.242969-252.209162 470.324832-252.209162 187.691753 0 355.1026 97.779977 470.323809 252.209162 50.834782 68.100004 50.834782 169.245635 0 237.390666zM512.474814 147.94168000000002c-130.780579 0-237.172701 105.910145-237.172701 236.035807 0 130.169665 106.391099 236.035808 237.172701 236.035808 130.825604 0 237.216703-105.866143 237.216703-236.035808 0-130.125663-106.391099-236.035808-237.216703-236.035807z m0 404.62755c-93.496417 0-169.421644-75.532277-169.421644-168.591743 0-93.058442 75.924203-168.590719 169.421644-168.590719 93.541443 0 169.421644 75.532277 169.421644 168.590719 0 93.059466-75.880201 168.591743-169.421644 168.591743z"  horiz-adv-x="1024" />

    
    <glyph glyph-name="star-half" unicode="&#58909;" d="M452.089004 763.385657l-98.304934-200.876031-220.428341-32.242331c-75.150584-11.151991-90.173742-61.994959-36.954657-114.690112L255.458671 259.960962l-37.564547-221.332944c-12.534478-75.643817 31.30089-105.398492 97.068779-70.675666l196.536189 105.965404V814.457846h-0.179079c-21.409612-0.338714-42.719964-17.470907-59.231009-51.072189zM890.457006 529.868205l-220.427318 32.242332-98.32233 200.87603c-16.996093 34.594913-38.743396 51.41602-60.386322 51.073212h0.179079v-740.540089l0.093121 0.050142 197.257619-105.388259c67.63133-35.966143 109.585861-3.106758 97.070826 70.671573L768.349971 259.561873l158.419056 154.99098 0.644683 0.62524c54.471612 52.695153 36.941354 104.148012-36.956704 114.690112z"  horiz-adv-x="1024" />

    


  </font>
</defs>
</svg>
